<svg xmlns="http://www.w3.org/2000/svg" viewBox="0 0 200 200" fill="#215732">
  <!-- Three horizontal bars (left side) -->
  <rect x="20" y="105" width="80" height="16" rx="2"/>
  <rect x="20" y="131" width="80" height="16" rx="2"/>
  <rect x="20" y="157" width="80" height="16" rx="2"/>
  
  <!-- Leaves (top-left) -->
  <path d="M58 22 C58 22, 78 10, 78 35 C78 35, 78 55, 58 55 C58 55, 38 55, 38 35 C38 35, 38 10, 58 22Z"/>
  <path d="M40 40 C40 40, 55 25, 55 48 C55 48, 55 68, 40 72 C40 72, 22 72, 22 50 C22 50, 22 28, 40 40Z"/>
  <path d="M72 42 C72 42, 60 58, 45 75" stroke="#215732" stroke-width="3" fill="none"/>
  
  <!-- Leaf stems -->
  <path d="M50 30 C50 30, 68 18, 72 38 C72 38, 74 52, 60 60 C60 60, 46 65, 40 52 C40 52, 34 38, 50 30Z" />
  <path d="M32 48 C32 48, 48 36, 52 54 C52 54, 54 68, 42 76 C42 76, 28 80, 24 66 C24 66, 18 52, 32 48Z" />
  
  <!-- Arc/rainbow (top-right) -->
  <path d="M105 95 A55 55 0 0 1 160 40" stroke="#215732" stroke-width="16" fill="none" stroke-linecap="round"/>
  <path d="M115 95 A38 38 0 0 1 153 57" stroke="#215732" stroke-width="14" fill="none" stroke-linecap="round"/>
  
  <!-- Wavy/scalloped shapes (bottom-right) -->
  <path d="M108 110 C118 110, 118 100, 128 100 C138 100, 138 110, 148 110 C158 110, 158 100, 168 100 C178 100, 178 110, 180 110 L180 122 C170 122, 170 112, 160 112 C150 112, 150 122, 140 122 C130 122, 130 112, 120 112 C110 112, 110 122, 108 122Z"/>
  <path d="M108 132 C118 132, 118 124, 128 124 C138 124, 138 132, 148 132 C158 132, 158 124, 168 124 C178 124, 178 132, 180 132 L180 146 C170 146, 170 136, 160 136 C150 136, 150 146, 140 146 C130 146, 130 136, 120 136 C110 136, 110 146, 108 146Z"/>
  <path d="M108 156 C118 156, 118 148, 128 148 C138 148, 138 156, 148 156 C158 156, 158 148, 168 148 C178 148, 178 156, 180 156 L180 170 C170 170, 170 160, 160 160 C150 160, 150 170, 140 170 C130 170, 130 160, 120 160 C110 160, 110 170, 108 170Z"/>
</svg>
